<svg xmlns="http://www.w3.org/2000/svg" width="647.623" height="298.718"><path d="M423.084.001c-26.947 10.993-52.413 22.923-95.906 76.75l-9.312-7.687c-2.51-1.73-6.794-2.927-9.938-4.656l-8.844-2.938-9.781-4.281-6.937-1.875c-6.75-.371-12.625-1.397-13.25-6.531-2.933-1.057-6.264 3.507-8.875-2.438-2.81.638-5.658 1.415-7.125-3.312l-4.407-2.063c-5.688 1.896-7.172-1.821-8.843-5.281-4.188 2.392-6.723 1.842-8.157-3.875-5.137 1.608-9.301-.169-11.687-8.188-5.745-.276-8.486-4.676-8.72-12.531-2.391.728-7.087.964-7.093-9.031-11.445 23.033-17.88 46.562-22.468 70.281l8.593.344c-61.966 7.868-104.3 27.815-135.81 47.406-22.604 14.054-53.09 31.514-52.282 37.781.8 6.208 41.956 21.512 36.844 23.75-3.475 1.522-42.86-2.821-38.781 5.782 8.465 9.779 41.91 26.734 84.156 38.812 29.417 8.41 63.085 14.06 95.188 16.875 16.552 16.075 13.177 34.917 37.5 55.094 5.456 3.598 3.638-11.991 10.062-26.094 6.857-15.052 8.37-27.585-5.437-26.875l-.875-.062c48.537.422 90.24-11.447 134.97-25.719 33.896 29.079 53.852 34.114 74.968 38.437-17.914-6.274-37.427-20.244-41.875-30.437-4.272-9.791 21.305-16.005 5.282-20.313 4.169-1.31 8.397-2.581 12.656-3.875 2.767.739 4.552 1.949 5.969 3.344 1.36-2.795 4.735-2.027 7.875-1.687-1.194-1.687-2.484-3.292-4.157-4.594 4.212-1.254 8.407-2.541 12.625-3.813 2.408.742 4.008 1.902 5.313 3.188 1.36-2.795 4.735-1.996 7.875-1.656-1.117-1.579-2.295-3.119-3.813-4.375 4.636-1.413 9.286-2.838 13.938-4.282 2.359.742 3.926 1.883 5.219 3.157 1.36-2.796 4.766-2.027 7.906-1.688-1.113-1.573-2.295-3.089-3.813-4.344 3.584-1.128 7.183-2.285 10.782-3.437a12.435 12.435 0 0 1 4.5 2.875c1.36-2.795 4.766-1.996 7.906-1.656-1.041-1.472-2.151-2.889-3.531-4.094 3.939-1.282 7.912-2.59 11.875-3.906a12.5 12.5 0 0 1 3.812 2.593c1.36-2.795 4.736-1.995 7.875-1.656-.952-1.346-1.942-2.646-3.156-3.781 2.16-.73 4.33-1.477 6.5-2.219a12.494 12.494 0 0 1 4.344 2.813c1.36-2.796 4.735-2.027 7.875-1.688-1.047-1.479-2.148-2.916-3.532-4.125 3.912-1.361 7.84-2.721 11.782-4.125a12.625 12.625 0 0 1 3.906 2.656c1.36-2.795 4.735-2.027 7.875-1.687-1.014-1.433-2.083-2.816-3.406-4 2.459-.892 4.934-1.777 7.406-2.688 2.51.74 4.162 1.901 5.5 3.219 1.36-2.795 4.735-2.027 7.875-1.687-1.218-1.722-2.525-3.372-4.25-4.688.082-.019.168-.044.25-.062 6.186 4.617 13.116 9.244 15.562 16.593 3.914 11.756 30.556 55.602 74.688 73.469-55.516-62.566-64.982-126.15 3.344-191.47-28.976 7.626-45.393 25.434-61.782 43.125-21.51 23.219-15.478 32.779-32.343 42.5-.105-.026-.21-.067-.313-.093 2.016-1.453 3.418-3.366 4.719-5.344-3.126.445-6.484 1.341-7.938-1.406-1.624 1.712-3.768 3.23-7.5 4-2.236-.596-4.49-1.226-6.75-1.844 1.985-1.439 3.368-3.322 4.657-5.281-3.126.445-6.484 1.341-7.938-1.407-1.54 1.623-3.525 3.052-6.906 3.844-.01-.003-.022.003-.031 0-3.642-1.03-7.305-2.082-11-3.156 2.507-1.492 4.109-3.65 5.593-5.906-3.126.445-6.483 1.341-7.937-1.407-1.761 1.856-4.12 3.437-8.47 4.125-1.517-.45-3.036-.888-4.561-1.343 2.309-1.48 3.836-3.539 5.25-5.688-3.126.446-6.484 1.341-7.938-1.406-1.641 1.73-3.82 3.215-7.625 3.969-3.381-1.021-6.837-2.027-10.25-3.063 2.482-1.49 4.09-3.637 5.563-5.875-3.126.446-6.484 1.341-7.938-1.406-1.717 1.81-4.011 3.379-8.156 4.094-2.99-.908-6.023-1.839-9.031-2.75 2.473-1.491 4.059-3.637 5.53-5.875-3.125.445-6.483 1.341-7.937-1.407-1.717 1.81-4.01 3.379-8.156 4.094-4.05-1.218-8.11-2.447-12.187-3.656 2.07-1.453 3.489-3.394 4.812-5.406-3.126.445-6.483 1.341-7.937-1.407-1.54 1.624-3.526 3.052-6.907 3.844-3.88-1.133-7.76-2.232-11.656-3.344 1.966-1.435 3.344-3.302 4.625-5.25-3.126.446-6.483 1.341-7.937-1.406-1.52 1.602-3.481 3.014-6.782 3.813-2.91-.811-5.833-1.615-8.75-2.407 1.937-1.43 3.294-3.289 4.563-5.218-3.126.445-6.484 1.341-7.938-1.407-1.548 1.633-3.553 3.054-6.968 3.844-3.126-.819-6.246-1.616-9.375-2.406 21.81-10.164-11.48-15.123-6-31.781C375.632 39.514 400.376 13.433 423.087 0z" fill="#4b8bbe"/><path d="M354.594 218.351c34.675 30.054 54.848 35.157 76.227 39.535-17.914-6.274-37.421-20.263-41.868-30.456-4.328-9.919 22.013-16.134 4.659-20.449M552.274 140.051c18.394-9.965 11.535-19.421 33.55-43.186 16.39-17.691 32.824-35.493 61.799-43.119-68.326 65.318-58.875 128.91-3.36 191.47-44.131-17.867-70.761-61.711-74.674-73.467-2.47-7.419-9.534-12.052-15.764-16.714l-1.551-14.987zM178.624 242.121c17.72 16.284 13.689 35.491 38.5 56.073 5.457 3.598 3.666-11.992 10.09-26.095 6.857-15.051 8.37-27.587-5.438-26.877M181.734 72.352c4.589-23.719 11.035-47.251 22.48-70.284.006 9.995 4.704 9.741 7.096 9.013.233 7.854 2.97 12.266 8.715 12.542 2.387 8.019 6.555 9.801 11.692 8.192 1.434 5.718 3.949 6.279 8.136 3.886 1.67 3.46 3.164 7.159 8.852 5.263l4.426 2.057c1.467 4.728 4.31 3.948 7.12 3.309 2.61 5.945 5.918 1.387 8.85 2.444.626 5.134 6.523 6.168 13.273 6.539l6.94 1.873 9.767 4.279 8.833 2.931c3.144 1.729 7.437 2.942 9.946 4.671l11.16 9.228-147.29-5.943z" fill="#4b8bbe"/><path d="M326.434 77.686C370.394 23.048 395.97 11.058 423.074 0c-22.71 13.433-47.441 39.504-53.08 56.647-5.486 16.682 27.908 21.618 5.907 31.812M392.334 87.001c-2.053 2.165-4.88 3.977-10.781 4.407l7.469 4.75c6.172-.789 8.876-4.14 11.25-7.75-3.126.445-6.484 1.341-7.938-1.407zm18.907 5.219c-2.054 2.164-4.881 3.977-10.782 4.406l7.469 4.75c6.172-.788 8.876-4.14 11.25-7.75-3.126.446-6.483 1.341-7.937-1.406zm21.875 6.156c-2.054 2.165-4.881 3.977-10.782 4.407l7.469 4.75c6.172-.789 8.876-4.14 11.25-7.75-3.126.445-6.483 1.341-7.937-1.407zm23.468 6.375c-2.053 2.165-4.88 3.977-10.781 4.407l7.469 4.75c6.172-.789 8.876-4.141 11.25-7.75-3.126.445-6.484 1.341-7.938-1.407zm19.594 5.938c-2.053 2.164-4.88 3.977-10.781 4.406l7.437 4.75c6.172-.789 8.907-4.14 11.282-7.75-3.126.446-6.484 1.341-7.938-1.406zm20.25 6.375c-2.053 2.164-4.88 3.977-10.781 4.406l7.469 4.75c6.17-.789 8.875-4.14 11.25-7.75-3.126.446-6.484 1.341-7.938-1.406zm15.719 4.312c-2.053 2.165-4.88 3.977-10.781 4.407l7.468 4.75c6.172-.789 8.876-4.141 11.25-7.75-3.126.445-6.483 1.341-7.937-1.407zm20.28 6.625c-2.052 2.165-4.88 3.977-10.78 4.407l7.469 4.75c6.17-.789 8.875-4.141 11.25-7.75-3.126.445-6.484 1.341-7.938-1.407zm17.532 4.532c-2.053 2.164-4.88 4.008-10.781 4.437l7.469 4.75c6.172-.789 8.876-4.171 11.25-7.781-3.126.445-6.484 1.341-7.938-1.406zM546.514 152.531l-7.313 5.031c5.913.229 8.812 1.937 10.938 4.031 1.36-2.795 4.735-2.027 7.875-1.687-2.495-3.528-5.305-6.796-11.5-7.375zm-17.375 5.156l-7.313 5c5.913.229 8.812 1.969 10.938 4.062 1.36-2.795 4.735-2.027 7.875-1.687-2.495-3.528-5.305-6.796-11.5-7.375zm-20.031 7.281l-7.313 5.031c5.912.229 8.812 1.938 10.938 4.032 1.36-2.796 4.735-2.027 7.875-1.688-2.495-3.528-5.305-6.796-11.5-7.375zm-15.563 4.875l-7.312 5c5.912.229 8.812 1.938 10.937 4.031 1.36-2.795 4.736-1.995 7.875-1.656-2.495-3.528-5.305-6.796-11.5-7.375zm-20.062 7.063l-7.282 5c5.913.229 8.78 1.937 10.907 4.031 1.36-2.795 4.766-1.996 7.906-1.656-2.495-3.528-5.336-6.796-11.531-7.375zm-19.375 6.562l-7.282 5.031c5.913.229 8.78 1.938 10.907 4.032 1.36-2.796 4.766-2.027 7.906-1.688-2.495-3.528-5.336-6.796-11.531-7.375zm-23.22 7.188l-7.312 5c5.913.229 8.812 1.937 10.938 4.031 1.36-2.795 4.735-1.996 7.875-1.656-2.495-3.528-5.305-6.796-11.5-7.375zm-21.655 6.875l-7.313 5c5.912.229 8.812 1.968 10.938 4.062 1.36-2.795 4.735-2.027 7.875-1.687-2.495-3.528-5.305-6.796-11.5-7.375z" fill="#4b8bbe"/><path d="M590.294 148.851c-18.073-14.917-19.385-5.221-29.885-7.757-94.128-22.731-213.91-73.085-318.31-71.881-91.298 1.053-147.96 26.258-187.56 50.881-22.603 14.054-53.087 31.523-52.28 37.79.801 6.208 41.937 21.494 36.825 23.732-3.475 1.522-42.865-2.801-38.788 5.802 8.465 9.779 41.932 26.717 84.178 38.796 42.286 12.089 93.368 18.49 135.94 18.935 68.992.72 124.09-23.414 193.64-44.067 44.422-13.192 89.029-27.22 136.15-44.775 16.68-6.214 25.047 6.407 40.096-7.456z" fill="#4b8bbe"/><path d="M81.844 152.261c0 5.523-4.668 10-10.427 10-5.76 0-10.428-4.477-10.428-10s4.669-10 10.428-10c5.759 0 10.427 4.477 10.427 10z" fill="#4b8bbe"/><path d="M80.777 152.461c.002 5.032-4.25 9.113-9.495 9.113-5.245 0-9.497-4.081-9.495-9.113-.002-5.033 4.25-9.114 9.495-9.114 5.245 0 9.497 4.081 9.495 9.114z" fill="#4b8bbe"/><path d="M70.925 145.381c-7.43-.585-9.903 11.874-2.375 13.844 6.246 2.461 13.802-5.572 8.688-11.031-1.528-1.872-3.886-3.033-6.313-2.813z" fill="#4b8bbe"/><path d="M68.38 145.631c-7.083.344-4.87 11.87 1.688 10.406 5.822-.905 5.888-10.188-.313-10.406a6.652 6.652 0 0 0-1.375 0z" fill="#4b8bbe"/><path d="M68.38 145.631c-7.083.344-4.87 11.87 1.688 10.406 5.822-.905 5.888-10.188-.313-10.406a6.652 6.652 0 0 0-1.375 0z" fill="#4b8bbe"/><path d="M115.254 139.311c25.854 64.047-2.617 82.676-19.293 80.386" fill="#4b8bbe" filter="url(#filter3267)"/><path d="M167.244 148.951c6.437 64.047-34.545 82.676-53.53 80.386" fill="#4b8bbe" filter="url(#filter3259)"/><path d="M165.254 153.841c63.507-37.854 109.12-23.315 133.71-10.861-28.328 22.291-55.804 30.939-83.146 37.453 5.675-29.985-25.846-25.099-50.562-26.592z" fill="#4b8bbe"/><path d="M30.793 171.591c20.104 9.478 30.785 7.87 31.446 10.598 1.662 6.858-3.5 16.879-20.555 2.769" opacity=".639" fill="#4b8bbe"/></svg>